HIERARCHY
ROOT Hips
{
	OFFSET 0.000000 0.000000 0.000000
	CHANNELS 6 Xposition Yposition Zposition Zrotation Yrotation Xrotation 
	JOINT LHipJoint
	{
		OFFSET 0.000000 0.000000 0.000000
		CHANNELS 3 Zrotation Yrotation Xrotation
		JOINT LeftUpLeg
		{
			OFFSET 1.363060 -1.794630 0.839290
			CHANNELS 3 Zrotation Yrotation Xrotation
			JOINT LeftLeg
			{
				OFFSET 2.448110 -6.726130 0.000000
				CHANNELS 3 Zrotation Yrotation Xrotation
				JOINT LeftFoot
				{
					OFFSET 2.562200 -7.039590 0.000000
					CHANNELS 3 Zrotation Yrotation Xrotation
					JOINT LeftToeBase
					{
						OFFSET 0.157640 -0.433110 2.322550
						CHANNELS 3 Zrotation Yrotation Xrotation
						End Site
						{
							OFFSET 0.000000 0.000000 0.000000
						}
					}
				}
			}
		}
	}
	JOINT RHipJoint
	{
		OFFSET 0.000000 0.000000 0.000000
		CHANNELS 3 Zrotation Yrotation Xrotation
		JOINT RightUpLeg
		{
			OFFSET -1.305520 -1.794630 0.839290
			CHANNELS 3 Zrotation Yrotation Xrotation
			JOINT RightLeg
			{
				OFFSET -2.542530 -6.985550 0.000000
				CHANNELS 3 Zrotation Yrotation Xrotation
				JOINT RightFoot
				{
					OFFSET -2.568260 -7.056230 0.000000
					CHANNELS 3 Zrotation Yrotation Xrotation
					JOINT RightToeBase
					{
						OFFSET -0.164730 -0.452590 2.363150
						CHANNELS 3 Zrotation Yrotation Xrotation
						End Site
						{
							OFFSET 0.000000 0.000000 0.000000
						}
					}
				}
			}
		}
	}
	JOINT LowerBack
	{
		OFFSET 0.000000 0.000000 0.000000
		CHANNELS 3 Zrotation Yrotation Xrotation
		JOINT Spine
		{
			OFFSET 0.028270 2.035590 -0.193380
			CHANNELS 3 Zrotation Yrotation Xrotation
			JOINT Spine1
			{
				OFFSET 0.056720 2.048850 -0.042750
				CHANNELS 3 Zrotation Yrotation Xrotation
				JOINT Neck
				{
					OFFSET 0.000000 0.000000 0.000000
					CHANNELS 3 Zrotation Yrotation Xrotation
					JOINT Neck1
					{
						OFFSET -0.054170 1.746240 0.172020
						CHANNELS 3 Zrotation Yrotation Xrotation
						JOINT Head
						{
							OFFSET 0.104070 1.761360 -0.123970
							CHANNELS 3 Zrotation Yrotation Xrotation
							End Site
							{
								OFFSET 0.000000 0.000000 0.000000
							}
						}
					}
				}
				JOINT LeftShoulder
				{
					OFFSET 0.000000 0.000000 0.000000
					CHANNELS 3 Zrotation Yrotation Xrotation
					JOINT LeftArm
					{
						OFFSET 3.362410 1.200890 -0.311210
						CHANNELS 3 Zrotation Yrotation Xrotation
						JOINT LeftForeArm
						{
							OFFSET 4.983000 -0.000000 -0.000000
							CHANNELS 3 Zrotation Yrotation Xrotation
							JOINT LeftHand
							{
								OFFSET 3.483560 -0.000000 -0.000000
								CHANNELS 3 Zrotation Yrotation Xrotation
								JOINT LeftFingerBase
								{
									OFFSET 0.000000 0.000000 0.000000
									CHANNELS 3 Zrotation Yrotation Xrotation
									JOINT LeftHandIndex1
									{
										OFFSET 0.715260 -0.000000 -0.000000
										CHANNELS 3 Zrotation Yrotation Xrotation
										End Site
										{
											OFFSET 0.000000 0.000000 0.000000
										}
									}
								}
								JOINT LThumb
								{
									OFFSET 0.000000 0.000000 0.000000
									CHANNELS 3 Zrotation Yrotation Xrotation
									End Site
									{
										OFFSET 0.000000 0.000000 0.000000
									}
								}
							}
						}
					}
				}
				JOINT RightShoulder
				{
					OFFSET 0.000000 0.000000 0.000000
					CHANNELS 3 Zrotation Yrotation Xrotation
					JOINT RightArm
					{
						OFFSET -3.136600 1.374050 -0.404650
						CHANNELS 3 Zrotation Yrotation Xrotation
						JOINT RightForeArm
						{
							OFFSET -5.241900 -0.000000 -0.000000
							CHANNELS 3 Zrotation Yrotation Xrotation
							JOINT RightHand
							{
								OFFSET -3.444170 -0.000000 -0.000000
								CHANNELS 3 Zrotation Yrotation Xrotation
								JOINT RightFingerBase
								{
									OFFSET 0.000000 0.000000 0.000000
									CHANNELS 3 Zrotation Yrotation Xrotation
									JOINT RightHandIndex1
									{
										OFFSET -0.622530 -0.000000 -0.000000
										CHANNELS 3 Zrotation Yrotation Xrotation
										End Site
										{
											OFFSET 0.000000 0.000000 0.000000
										}
									}
								}
								JOINT RThumb
								{
									OFFSET 0.000000 0.000000 0.000000
									CHANNELS 3 Zrotation Yrotation Xrotation
									End Site
									{
										OFFSET 0.000000 0.000000 0.000000
									}
								}
							}
						}
					}
				}
			}
		}
	}
}
MOTION
Frames: 9
Frame Time: 0.008333
0.322180 17.824774 -14.258065 -5.983202 -3.335615 2.061338 0.469594 4.340112 2.774055 -9.567570 -8.924787 -32.576781 4.134749 13.346551 41.472029 0.030681 1.036638 5.695225 0.095600 -1.994400 -5.490200 1.630897 -5.046818 5.039632 28.481636 12.381006 -5.166851 -1.546140 -6.644180 26.701531 1.226713 -5.567512 -5.635254 -0.133800 -2.357600 6.495000 4.616103 0.623230 5.060259 5.449724 1.393259 4.705922 -0.840786 0.613041 -7.864561 -6.131750 -4.611227 -17.693373 3.588478 -4.853579 17.308304 -0.004400 -2.053900 9.007800 -7.189260 2.971496 -1.296313 -82.128299 5.511058 25.078278 13.507437 -22.656741 -2.791167 -0.362925 -0.666214 -5.985978 29.027876 18.506738 10.491800 -7.125000 0.000000 0.000000 1.236500 51.706200 0.204200 11.002483 -1.702699 -2.352582 71.041294 5.294941 20.312493 -12.899997 25.649373 -3.419039 1.057207 -0.178581 -0.508902 -20.577348 21.088220 -8.138000 7.125000 0.000000 0.000000 4.440600 -7.454000 3.838800
0.327494 17.834260 -14.154925 -6.013782 -3.370235 2.162153 0.396293 4.305433 2.728514 -9.377294 -9.054309 -32.555909 3.705441 12.943327 39.873336 -0.069093 1.547784 6.008142 0.102536 -2.064390 -5.683720 1.662064 -5.058592 5.083826 28.443183 12.253920 -4.764459 -1.476682 -6.527935 26.343893 1.303962 -5.773046 -5.566375 -0.102617 -2.048003 5.638836 4.706971 0.703122 5.026509 5.365824 1.505097 4.631200 -0.949132 0.665497 -7.876730 -6.027733 -4.646484 -17.487952 3.582141 -4.955326 17.195364 -0.035182 -2.098325 8.937351 -7.181566 2.967827 -1.296931 -82.091060 5.679403 25.116566 13.476274 -22.610665 -2.778882 -0.358902 -0.665395 -5.868049 28.797898 18.560855 10.421466 -7.125000 0.000000 0.000000 0.984970 51.722766 0.162985 11.002764 -1.705775 -2.358516 71.037546 5.301715 20.347670 -13.067313 25.883221 -3.497941 1.054085 -0.174449 -0.631887 -20.580806 21.110759 -8.145567 7.125000 0.000000 0.000000 4.442377 -7.432218 3.842297
0.332575 17.843234 -14.052062 -6.029314 -3.436215 2.270645 0.321877 4.271109 2.683758 -9.194035 -9.170532 -32.534339 3.283223 12.537354 38.284074 -0.169822 2.060361 6.332860 0.109662 -2.135084 -5.879187 1.693578 -5.071716 5.128052 28.381200 12.148948 -4.360187 -1.404156 -6.408380 25.973453 1.374660 -5.959491 -5.498138 -0.075797 -1.772483 4.877260 4.770693 0.791257 4.971547 5.282638 1.623467 4.564511 -1.041856 0.723065 -7.872247 -5.916807 -4.687264 -17.306073 3.547413 -5.059193 17.097246 -0.075629 -2.146000 8.874883 -7.175244 2.964072 -1.297823 -82.057435 5.836234 25.183351 13.444096 -22.563412 -2.766293 -0.356593 -0.664186 -5.808144 28.655507 18.548286 10.354016 -7.125000 0.000000 0.000000 0.837547 51.681077 0.137499 11.002686 -1.708301 -2.363378 71.035000 5.327257 20.375157 -13.224600 26.101685 -3.572316 1.051213 -0.169279 -0.727964 -20.606954 21.093710 -8.147554 7.125000 0.000000 0.000000 4.425951 -7.449960 3.826551
0.336974 17.850719 -13.950008 -6.000991 -3.593584 2.401508 0.244212 4.237821 2.641286 -9.031226 -9.248001 -32.510736 2.881670 12.123370 36.722300 -0.273334 2.577108 6.691969 0.117344 -2.207826 -6.080331 1.726104 -5.088775 5.172376 28.250643 12.108419 -3.950433 -1.322692 -6.279181 25.565705 1.426272 -6.090307 -5.431776 -0.061696 -1.596275 4.391340 4.755306 0.903413 4.854765 5.201533 1.760873 4.521233 -1.089050 0.795528 -7.819233 -5.785747 -4.744144 -17.192807 3.429946 -5.169240 17.042319 -0.144244 -2.203151 8.835675 -7.172925 2.960065 -1.299512 -82.034342 5.959508 25.333187 13.408962 -22.512727 -2.752819 -0.359283 -0.661840 -5.917337 28.768373 18.341376 10.294974 -7.125000 0.000000 0.000000 0.993521 51.469615 0.157848 11.001559 -1.709224 -2.365116 71.035957 5.407493 20.380229 -13.352662 26.275316 -3.633498 1.049067 -0.161086 -0.745627 -20.699223 20.961289 -8.133280 7.125000 0.000000 0.000000 4.356477 -7.582890 3.754726
0.341433 17.857679 -13.849150 -5.973131 -3.730325 2.500027 0.161814 4.208475 2.600404 -8.846732 -9.363665 -32.422472 2.487759 11.689928 35.142552 -0.381422 3.108807 7.090404 0.105841 -2.082517 -5.734215 1.761879 -5.109915 5.221601 28.123823 12.057000 -3.499450 -1.234727 -6.138792 25.123884 1.473758 -6.215259 -5.406349 -0.054595 -1.507581 4.146759 4.708090 0.973200 4.787433 5.165174 1.842043 4.479295 -1.086590 0.841664 -7.803619 -5.724179 -4.744308 -17.096176 3.362073 -5.187511 17.031133 -0.175428 -2.215489 8.814010 -7.172413 2.959308 -1.299786 -82.088485 6.075092 25.276369 13.359696 -22.436884 -2.734239 -0.363711 -0.653303 -5.821442 28.812519 17.888759 10.077686 -7.125000 0.000000 0.000000 1.116193 50.966644 0.163026 11.001516 -1.706829 -2.363862 70.983853 5.522496 20.492970 -13.437083 26.389692 -3.673189 1.047759 -0.156297 -0.802058 -20.750620 20.903778 -8.131367 7.125000 0.000000 0.000000 4.319395 -7.639318 3.717667
0.345947 17.864137 -13.749438 -5.945715 -3.847324 2.567591 0.074885 4.182902 2.561044 -8.641482 -9.515889 -32.272318 2.101164 11.237861 33.545601 -0.493888 3.654815 7.526481 0.075976 -1.767646 -4.864293 1.800764 -5.134961 5.275519 28.000580 11.995157 -3.009003 -1.140539 -5.987694 24.649449 1.517294 -6.334596 -5.420102 -0.054194 -1.502651 4.133173 4.630409 1.002435 4.767433 5.171643 1.869389 4.438643 -1.036605 0.862601 -7.823802 -5.729126 -4.690186 -17.015468 3.341668 -5.117939 17.061813 -0.170785 -2.184936 8.809138 -7.173630 2.961663 -1.298705 -82.216552 6.183315 25.021752 13.296904 -22.336960 -2.710773 -0.369801 -0.638842 -5.529248 28.790892 17.200965 9.708932 -7.125000 0.000000 0.000000 1.206992 50.184654 0.153682 11.002509 -1.701257 -2.359745 70.880961 5.670775 20.708766 -13.479736 26.447350 -3.692309 1.047254 -0.154767 -0.895596 -20.762895 20.917965 -8.141284 7.125000 0.000000 0.000000 4.313319 -7.622523 3.713884
0.350899 17.864462 -13.647713 -6.006885 -3.929196 2.667230 -0.000451 4.153470 2.517106 -8.337139 -9.668187 -32.151160 1.737352 10.785600 31.973768 -0.597724 4.161813 7.888701 0.063333 -1.621259 -4.460194 1.832345 -5.148636 5.321729 27.976418 11.875031 -2.608982 -1.066569 -5.860673 24.268156 1.508722 -6.306700 -5.445257 -0.055023 -1.514197 4.164971 4.667096 1.034005 4.743642 5.184782 1.912523 4.368902 -1.050433 0.885033 -7.850055 -5.761310 -4.657898 -16.892970 3.357018 -5.081576 17.029966 -0.156213 -2.169716 8.779839 -7.172332 2.962416 -1.296999 -82.297115 6.295347 24.823411 13.243668 -22.252036 -2.691666 -0.373729 -0.624150 -5.299450 28.710791 16.499962 9.309250 -7.125000 0.000000 0.000000 1.230792 49.375778 0.132785 11.002999 -1.697840 -2.358006 70.797094 5.771562 20.895862 -13.548762 26.541035 -3.724578 1.046792 -0.148830 -0.975908 -20.822207 20.843822 -8.136175 7.125000 0.000000 0.000000 4.269021 -7.696010 3.669462
0.356006 17.862768 -13.545332 -6.095657 -4.001781 2.777002 -0.072210 4.122905 2.471800 -8.001290 -9.820996 -32.038377 1.381063 10.332964 30.409710 -0.699137 4.657462 8.227635 0.056341 -1.531336 -4.212176 1.861557 -5.158759 5.365442 27.983028 11.737880 -2.237556 -0.999270 -5.741730 23.917638 1.484219 -6.233607 -5.472499 -0.055992 -1.527305 4.201069 4.739923 1.067749 4.719003 5.199258 1.962511 4.290757 -1.085032 0.908860 -7.877769 -5.799756 -4.633912 -16.759663 3.381782 -5.057700 16.978000 -0.139700 -2.160320 8.743034 -7.170303 2.962650 -1.295129 -82.362019 6.407166 24.645757 13.193001 -22.171249 -2.673716 -0.376871 -0.609628 -5.093399 28.610819 15.806425 8.905503 -7.125000 0.000000 0.000000 1.230467 48.571430 0.108459 11.003292 -1.695123 -2.357027 70.719345 5.858242 21.071699 -13.625779 26.645586 -3.760778 1.046414 -0.141760 -1.053720 -20.896108 20.748282 -8.128731 7.125000 0.000000 0.000000 4.213377 -7.790943 3.613418
0.362063 17.854311 -13.441106 -6.211384 -4.137676 2.902728 -0.142071 4.094329 2.427638 -7.607126 -9.995677 -31.904929 1.050597 9.866200 28.851025 -0.809767 5.177249 8.531887 0.067347 -1.669999 -4.594687 1.884407 -5.164959 5.402552 28.015379 11.633712 -1.912453 -0.954760 -5.655899 23.673877 1.457510 -6.146006 -5.437702 -0.046476 -1.385948 3.811508 4.870217 1.166758 4.708084 5.182635 2.103724 4.233231 -1.178725 0.974670 -7.888086 -5.747077 -4.683579 -16.712342 3.340316 -5.139559 16.878494 -0.171686 -2.202337 8.703482 -7.169873 2.961562 -1.294412 -82.374159 6.457643 24.626026 13.127028 -22.071007 -2.648085 -0.374355 -0.605803 -5.098667 28.419265 15.626168 8.741217 -7.125000 0.000000 0.000000 1.064577 48.335320 0.088339 11.001647 -1.694333 -2.357620 70.655899 5.961275 21.135318 -13.700714 26.745027 -3.793572 1.049162 -0.144067 -1.199851 -20.981390 20.899462 -8.221478 7.125000 0.000000 0.000000 4.171246 -7.614792 3.591406
